<svg width="553" height="553" viewBox="0 0 553 553" fill="none" xmlns="http://www.w3.org/2000/svg">
<g clip-path="url(#clip0_1_4)">
<circle cx="276" cy="276" r="277" fill="#060606"/>
<path d="M166 93C190.305 93 210.3 111.449 212.747 135.106L212.864 135L315 246.55V161C332.121 161 346 174.879 346 192V325.712L345.701 325.986L202.509 169.596C194.481 179.487 182.517 186.054 169 186.905V368.795C187.08 375.34 200 392.661 200 413C200 438.957 178.957 460 153 460C127.043 460 106 438.957 106 413C106 392.288 119.398 374.706 138 368.445V177.751C126.471 169.186 119 155.466 119 140C119 114.043 140.043 93 166 93ZM153 392C141.402 392 132 401.402 132 413C132 424.598 141.402 434 153 434C164.598 434 174 424.598 174 413C174 401.402 164.598 392 153 392ZM166 119C154.402 119 145 128.402 145 140C145 151.598 154.402 161 166 161C177.598 161 187 151.598 187 140C187 128.402 177.598 119 166 119Z" fill="white"/>
<path d="M386 460C361.695 460 341.7 441.551 339.253 417.894L339.136 418L237 306.45V392C219.879 392 206 378.121 206 361V227.288L206.299 227.014L349.491 383.404C357.519 373.513 369.483 366.946 383 366.095V184.205C364.92 177.66 352 160.339 352 140C352 114.043 373.043 93 399 93C424.957 93 446 114.043 446 140C446 160.712 432.602 178.294 414 184.555V375.249C425.529 383.814 433 397.534 433 413C433 438.957 411.957 460 386 460ZM399 161C410.598 161 420 151.598 420 140C420 128.402 410.598 119 399 119C387.402 119 378 128.402 378 140C378 151.598 387.402 161 399 161ZM386 434C397.598 434 407 424.598 407 413C407 401.402 397.598 392 386 392C374.402 392 365 401.402 365 413C365 424.598 374.402 434 386 434Z" fill="white"/>
</g>
<defs>
<clipPath id="clip0_1_4">
<rect width="553" height="553" fill="white"/>
</clipPath>
</defs>
</svg>
